# xmcd
#
# Track frame offsets:
#	150
#	16493
#	31832
#	51490
#	68724
#	91016
#	113712
#	133064
#	155021
#	172004
#	192429
#	208493
#	228611
#	246180
#	267134
#
# Disc length: 3859 seconds
#
# Revision: 0
# Processed by: cddbd v1.5.1PL0 Copyright (c) Steve Scherf et al.
# Submitted via: EasyCDDAExtractor 8.2.3.1
#
DISCID=d90f110f
DTITLE=Heavy D and The Boyz - Heavy Hitz
DYEAR=2000
DGENRE=Hip-Hop
TTITLE0=The Overweight Lover's In The House
TTITLE1=Mr. Big Stuff
TTITLE2=Don't You Know
TTITLE3=We Got Our Own Thang
TTITLE4=Somebody For Me
TTITLE5=Gyrlz They Love Me
TTITLE6=Now That We Found Love (Featuring Aaron Hall)
TTITLE7=Is It Good To You
TTITLE8=You Can't See What I Can See
TTITLE9=Got Me Waiting
TTITLE10=Nuttin' But Love
TTITLE11=Black Coffee
TTITLE12=Big Daddy
TTITLE13=On Point
TTITLE14=Just Coolin' (Featuring Levert)
EXTD=
EXTT0=
EXTT1=
EXTT2=
EXTT3=
EXTT4=
EXTT5=
EXTT6=
EXTT7=
EXTT8=
EXTT9=
EXTT10=
EXTT11=
EXTT12=
EXTT13=
EXTT14=
PLAYORDER=
